<?xml version="1.0" standalone="no"?>
<!DOCTYPE svg PUBLIC "-//W3C//DTD SVG 20010904//EN"
 "http://www.w3.org/TR/2001/REC-SVG-20010904/DTD/svg10.dtd">
<svg version="1.0" xmlns="http://www.w3.org/2000/svg"
 width="60.000000pt" height="69.000000pt" viewBox="0 0 60.000000 69.000000"
 preserveAspectRatio="xMidYMid meet">

<g transform="translate(0.000000,69.000000) scale(0.100000,-0.100000)"
fill="#000000" stroke="none">
<path d="M230 659 c-52 -24 -86 -53 -106 -91 -9 -18 -23 -28 -37 -28 -12 0
-31 -3 -43 -6 -20 -5 -20 -7 -8 -97 7 -51 23 -166 35 -256 l22 -163 45 6 c25
3 47 7 48 9 2 2 -8 84 -22 182 -28 198 -28 272 2 312 46 61 159 87 216 49 40
-26 54 -74 84 -298 l28 -207 45 6 c26 3 47 7 49 8 7 6 -61 453 -74 485 -21 49
-61 88 -103 100 -57 16 -132 11 -181 -11z"/>
</g>
</svg>
